<svg xmlns="http://www.w3.org/2000/svg" width="70" height="70" viewBox="0 0 70 70"><g transform="translate(-994 -584)"><g transform="translate(994 584)" fill="#fff" stroke="#1e3a8a" stroke-width="2"><circle cx="9" cy="9" r="9" stroke="none"/><circle cx="9" cy="9" r="8" fill="none"/></g><g transform="translate(994 610)" fill="#fff" stroke="#1e3a8a" stroke-width="2"><circle cx="9" cy="9" r="9" stroke="none"/><circle cx="9" cy="9" r="8" fill="none"/></g><g transform="translate(1020 610)" fill="#fff" stroke="#1e3a8a" stroke-width="2"><circle cx="9" cy="9" r="9" stroke="none"/><circle cx="9" cy="9" r="8" fill="none"/></g><g transform="translate(1020 636)" fill="#fff" stroke="#1e3a8a" stroke-width="2"><circle cx="9" cy="9" r="9" stroke="none"/><circle cx="9" cy="9" r="8" fill="none"/></g><g transform="translate(1046 610)" fill="#fff" stroke="#1e3a8a" stroke-width="2"><circle cx="9" cy="9" r="9" stroke="none"/><circle cx="9" cy="9" r="8" fill="none"/></g><g transform="translate(1046 636)" fill="#1e3a8a" stroke="#1e3a8a" stroke-width="2"><circle cx="9" cy="9" r="9" stroke="none"/><circle cx="9" cy="9" r="8" fill="none"/></g><g transform="translate(994 636)" fill="#fff" stroke="#1e3a8a" stroke-width="2"><circle cx="9" cy="9" r="9" stroke="none"/><circle cx="9" cy="9" r="8" fill="none"/></g><g transform="translate(1046 584)" fill="#1e3a8a"><path d="M 9 17 C 4.588789939880371 17 1 13.41121006011963 1 9 C 1 4.588789939880371 4.588789939880371 1 9 1 C 13.41121006011963 1 17 4.588789939880371 17 9 C 17 13.41121006011963 13.41121006011963 17 9 17 Z" stroke="none"/><path d="M 9 2 C 5.140190124511719 2 2 5.140190124511719 2 9 C 2 12.85980987548828 5.140190124511719 16 9 16 C 12.85980987548828 16 16 12.85980987548828 16 9 C 16 5.140190124511719 12.85980987548828 2 9 2 M 9 0 C 13.97056007385254 0 18 4.029439926147461 18 9 C 18 13.97056007385254 13.97056007385254 18 9 18 C 4.029439926147461 18 0 13.97056007385254 0 9 C 0 4.029439926147461 4.029439926147461 0 9 0 Z" stroke="none" fill="#1e3a8a"/></g><g transform="translate(1020 584)" fill="#1e3a8a" stroke="#1e3a8a" stroke-width="2"><circle cx="9" cy="9" r="9" stroke="none"/><circle cx="9" cy="9" r="8" fill="none"/></g></g></svg>