<svg xmlns="http://www.w3.org/2000/svg" width="48" height="48" viewBox="0 0 48 48"><g transform="translate(-130 -831)"><rect width="48" height="48" transform="translate(130 831)" fill="none"/><path d="M16.32,31.4c1.92,0,3.32-1.64,3.96-3.68L20,27.56c-.6,1.2-1.2,1.8-1.88,1.8A1.238,1.238,0,0,1,17,28l.28-11.2c.12-3.08-2.16-5.44-6.28-5.44a9.6,9.6,0,0,0-8.24,4.36l3.04,2.2.2-.04A9.588,9.588,0,0,1,7.48,13.8a3.634,3.634,0,0,1,3.24-1.72c2.24,0,3,1.68,2.96,3.56l-.08,2.64C5.24,20.72,1.24,23.36,1.24,26.92c0,2.56,2,4.4,5.2,4.4a8.261,8.261,0,0,0,7-3.96l.04.04C13.36,29.6,14.2,31.4,16.32,31.4ZM8.28,29.16a2.858,2.858,0,0,1-3.04-3.12c0-2.72,2.24-5.04,8.36-7l-.2,7.36C11.68,28.24,10,29.16,8.28,29.16Z" transform="matrix(0.866, 0.5, -0.5, 0.866, 150.602, 820.845)" fill="#fff"/><path d="M16.32,31.4c1.92,0,3.32-1.64,3.96-3.68L20,27.56c-.6,1.2-1.2,1.8-1.88,1.8A1.238,1.238,0,0,1,17,28l.28-11.2c.12-3.08-2.16-5.44-6.28-5.44a9.6,9.6,0,0,0-8.24,4.36l3.04,2.2.2-.04A9.588,9.588,0,0,1,7.48,13.8a3.634,3.634,0,0,1,3.24-1.72c2.24,0,3,1.68,2.96,3.56l-.08,2.64C5.24,20.72,1.24,23.36,1.24,26.92c0,2.56,2,4.4,5.2,4.4a8.261,8.261,0,0,0,7-3.96l.04.04C13.36,29.6,14.2,31.4,16.32,31.4ZM8.28,29.16a2.858,2.858,0,0,1-3.04-3.12c0-2.72,2.24-5.04,8.36-7l-.2,7.36C11.68,28.24,10,29.16,8.28,29.16Z" transform="matrix(-0.866, -0.5, 0.5, -0.866, 157.398, 889.155)" fill="#fff"/></g></svg>