<svg xmlns="http://www.w3.org/2000/svg" width="48" height="56.099" viewBox="0 0 48 56.099"><g transform="translate(-236 -931)"><g transform="translate(106 100)"><rect width="48" height="48" transform="translate(130 831)" fill="none"/><path d="M16.32,31.4c1.92,0,3.32-1.64,3.96-3.68L20,27.56c-.6,1.2-1.2,1.8-1.88,1.8A1.238,1.238,0,0,1,17,28l.28-11.2c.12-3.08-2.16-5.44-6.28-5.44a9.6,9.6,0,0,0-8.24,4.36l3.04,2.2.2-.04A9.588,9.588,0,0,1,7.48,13.8a3.634,3.634,0,0,1,3.24-1.72c2.24,0,3,1.68,2.96,3.56l-.08,2.64C5.24,20.72,1.24,23.36,1.24,26.92c0,2.56,2,4.4,5.2,4.4a8.261,8.261,0,0,0,7-3.96l.04.04C13.36,29.6,14.2,31.4,16.32,31.4ZM8.28,29.16a2.858,2.858,0,0,1-3.04-3.12c0-2.72,2.24-5.04,8.36-7l-.2,7.36C11.68,28.24,10,29.16,8.28,29.16Z" transform="matrix(0.866, 0.5, -0.5, 0.866, 150.602, 820.845)" fill="#fff"/><path d="M16.32,31.4c1.92,0,3.32-1.64,3.96-3.68L20,27.56c-.6,1.2-1.2,1.8-1.88,1.8A1.238,1.238,0,0,1,17,28l.28-11.2c.12-3.08-2.16-5.44-6.28-5.44a9.6,9.6,0,0,0-8.24,4.36l3.04,2.2.2-.04A9.588,9.588,0,0,1,7.48,13.8a3.634,3.634,0,0,1,3.24-1.72c2.24,0,3,1.68,2.96,3.56l-.08,2.64C5.24,20.72,1.24,23.36,1.24,26.92c0,2.56,2,4.4,5.2,4.4a8.261,8.261,0,0,0,7-3.96l.04.04C13.36,29.6,14.2,31.4,16.32,31.4ZM8.28,29.16a2.858,2.858,0,0,1-3.04-3.12c0-2.72,2.24-5.04,8.36-7l-.2,7.36C11.68,28.24,10,29.16,8.28,29.16Z" transform="matrix(-0.866, -0.5, 0.5, -0.866, 157.398, 889.155)" fill="#fff"/></g><path d="M5.386-27.656h.648a1.813,1.813,0,0,0-.232-.686,1.688,1.688,0,0,0-.444-.495,1.945,1.945,0,0,0-.608-.3,2.505,2.505,0,0,0-.724-.1,2.332,2.332,0,0,0-.993.2,2.052,2.052,0,0,0-.724.549,2.41,2.41,0,0,0-.44.816,3.252,3.252,0,0,0-.15,1,3.437,3.437,0,0,0,.14,1,2.3,2.3,0,0,0,.42.805,1.944,1.944,0,0,0,.7.536,2.349,2.349,0,0,0,.99.195,2.054,2.054,0,0,0,1.474-.512,2.214,2.214,0,0,0,.635-1.433H5.433a1.86,1.86,0,0,1-.123.56,1.351,1.351,0,0,1-.283.447,1.29,1.29,0,0,1-.43.294,1.447,1.447,0,0,1-.57.106,1.6,1.6,0,0,1-.751-.164,1.466,1.466,0,0,1-.515-.44,1.886,1.886,0,0,1-.3-.648,3.158,3.158,0,0,1-.1-.788,2.823,2.823,0,0,1,.1-.737,1.9,1.9,0,0,1,.3-.631,1.475,1.475,0,0,1,.512-.44,1.583,1.583,0,0,1,.747-.164,1.506,1.506,0,0,1,.884.259A1.206,1.206,0,0,1,5.386-27.656Zm1.877.969a2.81,2.81,0,0,1,.1-.727,1.974,1.974,0,0,1,.3-.645,1.536,1.536,0,0,1,.526-.461,1.581,1.581,0,0,1,.765-.174,1.581,1.581,0,0,1,.765.174,1.536,1.536,0,0,1,.526.461,1.974,1.974,0,0,1,.3.645,2.81,2.81,0,0,1,.1.727,2.81,2.81,0,0,1-.1.727,1.974,1.974,0,0,1-.3.645,1.536,1.536,0,0,1-.526.461,1.581,1.581,0,0,1-.765.174,1.581,1.581,0,0,1-.765-.174,1.536,1.536,0,0,1-.526-.461,1.974,1.974,0,0,1-.3-.645A2.81,2.81,0,0,1,7.263-26.687Zm-.648,0a3.141,3.141,0,0,0,.147.959,2.417,2.417,0,0,0,.44.816,2.112,2.112,0,0,0,.73.563,2.34,2.34,0,0,0,1.017.208,2.34,2.34,0,0,0,1.017-.208,2.112,2.112,0,0,0,.73-.563,2.417,2.417,0,0,0,.44-.816,3.141,3.141,0,0,0,.147-.959,3.141,3.141,0,0,0-.147-.959,2.417,2.417,0,0,0-.44-.816,2.149,2.149,0,0,0-.73-.567,2.308,2.308,0,0,0-1.017-.212,2.308,2.308,0,0,0-1.017.212,2.149,2.149,0,0,0-.73.567,2.417,2.417,0,0,0-.44.816A3.141,3.141,0,0,0,6.614-26.687Zm5.454-2.437v4.874h.614v-3.911H12.7l2.546,3.911h.71v-4.874h-.614v3.952h-.014l-2.567-3.952ZM19.822-27.7h.614a1.718,1.718,0,0,0-.154-.693,1.35,1.35,0,0,0-.382-.481,1.577,1.577,0,0,0-.563-.28,2.6,2.6,0,0,0-.7-.089,2.5,2.5,0,0,0-.652.085,1.792,1.792,0,0,0-.567.259,1.313,1.313,0,0,0-.4.444,1.291,1.291,0,0,0-.15.638,1.066,1.066,0,0,0,.133.556,1.079,1.079,0,0,0,.355.362,2.063,2.063,0,0,0,.5.225q.28.085.57.15l.57.126a2.6,2.6,0,0,1,.5.16.978.978,0,0,1,.355.256.612.612,0,0,1,.133.41.8.8,0,0,1-.109.437.8.8,0,0,1-.287.27,1.3,1.3,0,0,1-.4.14,2.421,2.421,0,0,1-.44.041,2.083,2.083,0,0,1-.532-.068,1.325,1.325,0,0,1-.454-.212,1.086,1.086,0,0,1-.314-.365,1.1,1.1,0,0,1-.119-.529h-.614a1.714,1.714,0,0,0,.16.768,1.472,1.472,0,0,0,.437.532,1.913,1.913,0,0,0,.642.311,2.858,2.858,0,0,0,.775.1,2.963,2.963,0,0,0,.672-.078,1.946,1.946,0,0,0,.611-.253,1.433,1.433,0,0,0,.447-.451,1.224,1.224,0,0,0,.174-.666,1.222,1.222,0,0,0-.133-.6,1.186,1.186,0,0,0-.355-.4,1.88,1.88,0,0,0-.5-.249q-.28-.092-.57-.16t-.57-.126a2.985,2.985,0,0,1-.5-.147.987.987,0,0,1-.355-.229.508.508,0,0,1-.133-.365.792.792,0,0,1,.092-.4.717.717,0,0,1,.246-.256,1.069,1.069,0,0,1,.352-.137,1.983,1.983,0,0,1,.4-.041,1.376,1.376,0,0,1,.829.235A1.015,1.015,0,0,1,19.822-27.7Zm5.495,1.686v-3.113h-.648v3.113a1.381,1.381,0,0,1-.324.993,1.25,1.25,0,0,1-.945.338,1.383,1.383,0,0,1-1-.338,1.323,1.323,0,0,1-.348-.993v-3.113H21.4v3.113a1.764,1.764,0,0,0,.529,1.423,2.211,2.211,0,0,0,1.471.447,2,2,0,0,0,1.42-.468A1.834,1.834,0,0,0,25.317-26.011Zm1.038-3.113v4.874h3.229V-24.8H27v-4.328Zm4.273.546v4.328h.648v-4.328H32.9v-.546H29v.546Zm3.024,2.314.826-2.273h.014l.812,2.273Zm.485-2.86-1.9,4.874H32.9l.546-1.468h2.061l.532,1.468h.717l-1.9-4.874Zm3.092,0v4.874h.614v-3.911h.014L40.4-24.25h.71v-4.874H40.5v3.952h-.014l-2.567-3.952Zm6.041.546v4.328h.648v-4.328h1.625v-.546h-3.9v.546ZM48.9-27.7h.614a1.718,1.718,0,0,0-.154-.693,1.35,1.35,0,0,0-.382-.481,1.577,1.577,0,0,0-.563-.28,2.6,2.6,0,0,0-.7-.089,2.5,2.5,0,0,0-.652.085,1.793,1.793,0,0,0-.567.259,1.313,1.313,0,0,0-.4.444,1.291,1.291,0,0,0-.15.638,1.066,1.066,0,0,0,.133.556,1.079,1.079,0,0,0,.355.362,2.063,2.063,0,0,0,.5.225q.28.085.57.15l.57.126a2.6,2.6,0,0,1,.5.16.978.978,0,0,1,.355.256.612.612,0,0,1,.133.41.8.8,0,0,1-.109.437.8.8,0,0,1-.287.27,1.3,1.3,0,0,1-.4.14,2.421,2.421,0,0,1-.44.041,2.083,2.083,0,0,1-.532-.068,1.325,1.325,0,0,1-.454-.212,1.086,1.086,0,0,1-.314-.365,1.1,1.1,0,0,1-.119-.529H45.8a1.714,1.714,0,0,0,.16.768,1.472,1.472,0,0,0,.437.532,1.913,1.913,0,0,0,.642.311,2.858,2.858,0,0,0,.775.1,2.963,2.963,0,0,0,.672-.078,1.946,1.946,0,0,0,.611-.253,1.433,1.433,0,0,0,.447-.451,1.224,1.224,0,0,0,.174-.666,1.222,1.222,0,0,0-.133-.6,1.186,1.186,0,0,0-.355-.4,1.88,1.88,0,0,0-.5-.249q-.28-.092-.57-.16t-.57-.126a2.985,2.985,0,0,1-.5-.147.987.987,0,0,1-.355-.229.508.508,0,0,1-.133-.365.791.791,0,0,1,.092-.4.717.717,0,0,1,.246-.256,1.069,1.069,0,0,1,.352-.137,1.982,1.982,0,0,1,.4-.041,1.376,1.376,0,0,1,.829.235A1.015,1.015,0,0,1,48.9-27.7Z" transform="translate(234.28 1011.24)" fill="#fff"/></g></svg>