<svg xmlns="http://www.w3.org/2000/svg" width="72" height="72" viewBox="0 0 72 72"><g transform="translate(-757 -583)"><g transform="translate(-2 19)"><g transform="translate(759 564)" fill="#fff" stroke="#1e3a8a" stroke-width="2"><circle cx="36" cy="36" r="36" stroke="none"/><circle cx="36" cy="36" r="35" fill="none"/></g><g transform="translate(759 564)" fill="#fff" stroke="#1e3a8a" stroke-width="2"><circle cx="34" cy="34" r="34" stroke="none"/><circle cx="34" cy="34" r="33" fill="none"/></g><g transform="translate(759 564)" fill="#fff" stroke="#1e3a8a" stroke-width="2"><circle cx="32" cy="32" r="32" stroke="none"/><circle cx="32" cy="32" r="31" fill="none"/></g><g transform="translate(759 564)" fill="#fff" stroke="#1e3a8a" stroke-width="2"><circle cx="30" cy="30" r="30" stroke="none"/><circle cx="30" cy="30" r="29" fill="none"/></g><g transform="translate(759 564)" fill="#fff" stroke="#1e3a8a" stroke-width="2"><circle cx="28" cy="28" r="28" stroke="none"/><circle cx="28" cy="28" r="27" fill="none"/></g><g transform="translate(759 564)" fill="#fff" stroke="#1e3a8a" stroke-width="2"><circle cx="26" cy="26" r="26" stroke="none"/><circle cx="26" cy="26" r="25" fill="none"/></g><g transform="translate(759 564)" fill="#fff" stroke="#1e3a8a" stroke-width="2"><circle cx="24" cy="24" r="24" stroke="none"/><circle cx="24" cy="24" r="23" fill="none"/></g><g transform="translate(759 564)" fill="#fff" stroke="#1e3a8a" stroke-width="2"><circle cx="22" cy="22" r="22" stroke="none"/><circle cx="22" cy="22" r="21" fill="none"/></g></g></g></svg>